Complete name                     WHEN WE WERE KINGS (WIDESCREEN) (1996)
Format                           : AVI
Format/Info                      : Audio Video Interleave
File size                        : 1.34 GiB
Duration                         : 1h 27mn
Overall bit rate                 : 2 192 Kbps
Movie name                       : WHEN_WE_WERE_KINGS_WIDESCREEN.Title9.DVDRip
Writing application              : Lavf52.33.0
Original source form/Name        : WHEN_WE_WERE_KINGS_WIDESCREEN

Video
ID                               : 0
Format                           : MPEG-4 Visual
Format profile                   : Simple@L3
Format settings, BVOP            : No
Format settings, QPel            : No
Format settings, GMC             : No warppoints
Format settings, Matrix          : Default (H.263)
Codec ID                         : XVID
Codec ID/Hint                    : XviD
Duration                         : 1h 27mn
Bit rate                         : 1 989 Kbps
Width                            : 624 pixels
Height                           : 342 pixels
Display aspect ratio             : 16:9
Frame rate                       : 23.976 fps
Resolution                       : 24 bits
Colorimetry                      : 4:2:0
Scan type                        : Progressive
Bits/(Pixel*Frame)               : 0.389
Stream size                      : 1.22 GiB (91%)
Writing library                  : XviD 1.2.1 (UTC 2008-12-04)

Audio
ID                               : 1
Format                           : AC-3
Format/Info                      : Audio Coding 3
Codec ID                         : 2000
Duration                         : 1h 27mn
Bit rate mode                    : Constant
Bit rate                         : 192 Kbps
Channel(s)                       : 2 channels
Channel positions                : L R
Sampling rate                    : 48.0 KHz
Stream size                      : 120 MiB (9%)
Alignment                        : Aligned on interleaves
Interleave, duration             : 32 ms (0.77 video frame)



 
http://www.imdb.com/title/tt0118147/



